<svg xmlns="http://www.w3.org/2000/svg" width="560" height="160" viewBox="0 0 560 160" role="img" aria-labelledby="title"><title id="title">Oxbit</title><g fill="#0f7b6c" transform="translate(0 0) scale(2.5)"><path d="M38 8H22C14.268 8 8 14.268 8 22V42C8 49.732 14.268 56 22 56H42C49.732 56 56 49.732 56 42V26H44V40C44 42.209 42.209 44 40 44H24C21.791 44 20 42.209 20 40V24C20 21.791 21.791 20 24 20H38Z"/><path d="M44 8H56V20H44Z"/></g><path fill="#14161a" transform="translate(188 126) scale(0.13)" d="M399 10 Q319 10 251 -17 Q184 -44 134 -93 Q85 -143 57 -211 Q30 -280 30 -363 Q30 -473 77 -555 Q124 -638 207 -684 Q291 -730 398 -730 Q507 -730 590 -684 Q673 -638 720 -555 Q768 -472 768 -362 Q768 -280 740 -211 Q713 -143 663 -93 Q614 -44 546 -17 Q479 10 399 10 Z M398 -112 Q461 -112 509 -144 Q557 -176 584 -232 Q612 -289 612 -364 Q612 -438 585 -493 Q558 -548 510 -578 Q462 -608 398 -608 Q335 -608 287 -578 Q239 -548 212 -493 Q186 -439 186 -364 Q186 -288 213 -231 Q240 -175 288 -143 Q336 -112 398 -112 Z M1189 0 L1038 -224 L821 -510 L989 -510 L1124 -309 L1357 0 L1189 0 Z M1050 -317 L1185 -510 L1349 -510 L1121 -212 L1050 -317 Z M1108 -204 L963 0 L800 0 L1037 -309 L1108 -204 Z M1730 10 Q1657 10 1611 -24 Q1566 -58 1558 -117 L1566 -118 L1566 0 L1419 0 L1419 -720 L1569 -720 L1569 -397 L1560 -399 Q1571 -455 1618 -487 Q1666 -520 1738 -520 Q1807 -520 1857 -487 Q1908 -455 1935 -396 Q1963 -337 1963 -257 Q1963 -176 1934 -116 Q1905 -56 1853 -23 Q1801 10 1730 10 Z M1688 -110 Q1741 -110 1774 -148 Q1807 -186 1807 -256 Q1807 -326 1773 -363 Q1740 -400 1686 -400 Q1634 -400 1600 -362 Q1567 -325 1567 -255 Q1567 -185 1600 -147 Q1634 -110 1688 -110 Z M2025 0 L2025 -510 L2175 -510 L2175 0 L2025 0 Z M2020 -578 L2020 -740 L2180 -740 L2180 -578 L2020 -578 Z M2515 11 Q2417 11 2369 -36 Q2322 -84 2322 -181 L2322 -624 L2472 -680 L2472 -176 Q2472 -142 2491 -125 Q2510 -108 2550 -108 Q2565 -108 2578 -111 Q2591 -114 2604 -118 L2604 -4 Q2591 3 2567 7 Q2544 11 2515 11 Z M2227 -396 L2227 -510 L2604 -510 L2604 -396 L2227 -396 Z"/></svg>
